<?xml version="1.0" encoding="utf-8"?>
<svg viewBox="0 0 15 15" xmlns="http://www.w3.org/2000/svg" xmlns:bx="https://boxy-svg.com">
  <defs>
    <bx:grid x="0" y="0" width="5" height="5"/>
  </defs>
  <path d="M 6.15 10 C 6.045 10 5.993 9.954 5.993 9.862 C 6.111 9.542 6.241 9.215 6.38 8.882 C 6.519 8.541 6.663 8.203 6.81 7.87 C 6.956 7.529 7.103 7.199 7.25 6.88 C 7.396 6.56 7.536 6.262 7.669 5.985 C 7.438 6.049 7.222 6.105 7.019 6.155 C 6.817 6.206 6.632 6.23 6.464 6.23 C 6.423 6.216 6.408 6.184 6.423 6.134 C 6.43 6.084 6.461 6.049 6.516 6.028 C 6.894 5.978 7.263 5.868 7.626 5.698 C 7.997 5.52 8.336 5.293 8.643 5.016 C 8.691 4.995 8.736 4.995 8.779 5.016 C 8.82 5.037 8.834 5.072 8.82 5.122 C 8.576 5.449 8.346 5.812 8.13 6.209 C 7.92 6.6 7.724 6.994 7.543 7.391 C 7.362 7.796 7.205 8.197 7.072 8.594 C 6.939 8.991 6.827 9.364 6.737 9.712 C 6.673 9.805 6.587 9.875 6.475 9.925 C 6.37 9.976 6.261 10 6.15 10 Z" style="fill: rgb(51, 51, 51); white-space: pre;" bx:origin="0.711 0.251"/>
</svg>